<?xml version="1.0" encoding="UTF-8" standalone="no"?>
<!-- Created with Inkscape (http://www.inkscape.org/) -->

<svg
   xmlns:dc="http://purl.org/dc/elements/1.1/"
   xmlns:cc="http://creativecommons.org/ns#"
   xmlns:rdf="http://www.w3.org/1999/02/22-rdf-syntax-ns#"
   xmlns:svg="http://www.w3.org/2000/svg"
   xmlns="http://www.w3.org/2000/svg"
   version="1.1"
   width="296.89874"
   height="296.88364"
   id="svg2"
   xml:space="preserve"><metadata
     id="metadata8"><rdf:RDF><cc:Work
         rdf:about=""><dc:format>image/svg+xml</dc:format><dc:type
           rdf:resource="http://purl.org/dc/dcmitype/StillImage" /><dc:title></dc:title></cc:Work></rdf:RDF></metadata><defs
     id="defs6"><clipPath
       id="clipPath18"><path
         d="m 3117.28,573 2375.19,0 0,2375.19 -2375.19,0 0,-2375.19 z"
         id="path20" /></clipPath></defs><g
     transform="matrix(1.25,0,0,-1.25,0.2304,367.54628)"
     id="g10"><g
       transform="scale(0.1,0.1)"
       id="g12"><g
         transform="translate(-3119.1232,-7.819758)"
         id="g14"><g
           clip-path="url(#clipPath18)"
           id="g16"><path
             d="m 4304.87,2948.19 c -655.92,0 -1187.59,-534.36 -1187.59,-1193.51 0,-16.1 0.58,-32.25 1.2,-48.35 24.59,578.23 503.65,1080.45 1080.62,1103.62 -158.46,-76.9 -283.33,-323.87 -340.92,-650.64 l -457.3,-39 450.76,0 c -18.32,-116.59 -28.18,-242.43 -28.18,-373.75 0,-263.43 42.75,-504.96 114,-693.34 -31.76,143.14 -49.76,304.55 -49.76,475.67 0,208.17 24.59,413.34 67.87,591.47 l 695.41,0 c 19.95,-97.06 37.52,-205.11 53.2,-323.13 l -746.86,-58.54 757.53,-25.39 c 12.77,-106.51 24.02,-219.94 33.78,-339.81 l -566.67,-54.15 572.84,-23.38 c 3.59,-48.77 6.96,-98.07 10.34,-148.58 8.13,54.05 14.5,102.5 19.37,147.37 l 501.27,-20.53 C 5130.02,960.641 4803.35,733.789 4471.3,573.121 c 577.11,81.34 1021.27,579.229 1021.27,1181.679 0,659.14 -531.61,1193.51 -1187.59,1193.51 l -0.11,-0.12 z m 895.61,-674.18 -466.86,-39.9 c -55.89,279.06 -148.84,471.55 -276,554.79 306.82,-62.86 575.54,-255.2 742.79,-514.89 l 0.07,0 z M 3967.96,2168.76 c 79.65,295.79 212.5,505.28 369,505.28 125.95,0 220.48,-164.26 290.42,-449.02 l -659.42,-56.27 0,0.01 z m 818.5,-357.6 c -7.23,110.95 -18.16,214.03 -32.78,309.14 l 530.35,0 c 38.15,-85.93 66.13,-176.77 81.65,-271.25 l -578.8,-45.39 c -0.22,2.53 -0.42,4.96 -0.42,7.49 l 0,0.01 z m 559.95,-380.72 -554.25,-52.99 c 8.8,116.7 6.86,212.87 0.25,333.11 l 587.3,-19.79 c 0.17,-5.59 0.38,-11.19 0.38,-16.84 0,-85.77 -11.98,-166.89 -33.68,-243.48"
             id="path22"
             style="fill:#1d8110;fill-opacity:1;fill-rule:nonzero;stroke:none" /></g></g></g></g></svg>